<svg xmlns="http://www.w3.org/2000/svg" viewBox="0 0 288.00495 54.5123">
  <defs>
    <style>
      .cls-1 {
        fill: #ecedf0;
      }
    </style>
  </defs>
  <title>lcx_h_c_Svg</title>
  <g id="Layer_2" data-name="Layer 2">
    <g id="Layer_1-2" data-name="Layer 1">
      <g>
        <g>
          <path class="cls-1" d="M65.144,13.52838h4.1055V38.696H84.81007v3.57189H65.144Z"/>
          <path class="cls-1" d="M88.25966,13.77463a2.59484,2.59484,0,0,1,2.66872-2.58653,2.568,2.568,0,1,1-2.66872,2.58653Zm.698,6.73312H92.8991v21.7601H88.95766Z"/>
          <path class="cls-1" d="M121.22794,20.50776v18.804c0,7.67772-3.90034,11.16741-11.29037,11.16741-3.98254,0-8.00617-1.10865-10.38754-3.24343l1.88886-3.03828a13.28,13.28,0,0,0,8.37539,2.83312c5.132,0,7.47223-2.38137,7.47223-7.30817V37.998a9.9557,9.9557,0,0,1-7.84178,3.36673c-6.28171,0-11.04411-4.26989-11.04411-10.5516s4.7624-10.5105,11.04411-10.5105a9.929,9.929,0,0,1,8.04727,3.57189V20.50776ZM117.36869,30.8131c0-4.22879-3.12047-7.06191-7.47223-7.06191-4.39319,0-7.51332,2.83312-7.51332,7.06191,0,4.18769,3.12014,7.10267,7.51332,7.10267C114.24822,37.91577,117.36869,35.00079,117.36869,30.8131Z"/>
          <path class="cls-1" d="M149.39371,29.74554V42.26786h-3.94144V30.19729c0-4.26989-2.13511-6.3639-5.87106-6.3639-4.188,0-6.89752,2.50433-6.89752,7.226V42.26786h-3.94144V11.80391h3.94144V23.58713a9.43454,9.43454,0,0,1,7.67738-3.28453C145.65743,20.3026,149.39371,23.34087,149.39371,29.74554Z"/>
          <path class="cls-1" d="M168.93751,40.99515a7.43372,7.43372,0,0,1-4.7624,1.519c-4.39319,0-6.89752-2.42213-6.89752-6.81532V23.75119h-3.69518V20.50776h3.69518v-4.7624H161.219v4.7624h6.24061v3.24343H161.219V35.5344c0,2.34027,1.23162,3.65408,3.40783,3.65408a4.9632,4.9632,0,0,0,3.079-1.02646Z"/>
          <path class="cls-1" d="M171.935,27.89812c0-8.49868,6.48687-14.69853,15.23214-14.69853A14.2015,14.2015,0,0,1,198.088,17.675l-2.66872,2.58653a10.64832,10.64832,0,0,0-8.088-3.40783c-6.48687,0-11.29037,4.68054-11.29037,11.04445,0,6.36357,4.8035,11.04411,11.29037,11.04411a10.68589,10.68589,0,0,0,8.088-3.44859l2.66872,2.58653a14.25982,14.25982,0,0,1-10.96191,4.51615C178.42189,42.59631,171.935,36.3968,171.935,27.89812Z"/>
          <path class="cls-1" d="M224.03678,29.74554V42.26786h-3.94144V30.19729c0-4.26989-2.13511-6.3639-5.87106-6.3639-4.188,0-6.89752,2.50433-6.89752,7.226V42.26786h-3.94144V11.80391h3.94144V23.58713a9.43454,9.43454,0,0,1,7.67738-3.28453C220.3005,20.3026,224.03678,23.34087,224.03678,29.74554Z"/>
          <path class="cls-1" d="M248.58957,29.12973V42.26786h-3.73595V39.394c-1.31381,1.97072-3.73628,3.12014-7.14411,3.12014-4.9268,0-8.04693-2.62763-8.04693-6.40467,0-3.49,2.25807-6.3639,8.74494-6.3639h6.24061v-.7802c0-3.3253-1.92962-5.25525-5.83-5.25525a11.00555,11.00555,0,0,0-6.89752,2.34027l-1.64227-2.95608a14.49152,14.49152,0,0,1,8.9912-2.79168C245.22284,20.3026,248.58957,23.17648,248.58957,29.12973Zm-3.94144,6.48687V32.57866h-6.07622c-3.90067,0-5.009,1.519-5.009,3.36639,0,2.17621,1.80633,3.53079,4.8035,3.53079C241.3225,39.47584,243.66277,38.12126,244.64813,35.6166Z"/>
          <path class="cls-1" d="M255.2004,13.77463a2.59484,2.59484,0,0,1,2.66872-2.58653,2.568,2.568,0,1,1-2.66872,2.58653Zm.698,6.73312h3.94144v21.7601H255.8984Z"/>
          <path class="cls-1" d="M288.00495,29.74554V42.26786h-3.94144V30.19729c0-4.26989-2.13511-6.3639-5.87106-6.3639-4.188,0-6.89752,2.50433-6.89752,7.226V42.26786H267.3535V20.50776h3.777v3.28453c1.60117-2.217,4.39319-3.48969,7.84178-3.48969C284.26867,20.3026,288.00495,23.34087,288.00495,29.74554Z"/>
        </g>
        <g>
          <path class="cls-1" d="M22.26411,23.80059"/>
          <path class="cls-1" d="M23.679,21.75691c-.01617-.01877-.03158-.0383-.0477-.05711l-.0029.00221q-.8535.6201-1.74992,1.14693-.11588.06984-.23448.13589l-.08318.04893c-.02563.0148-.05.02868-.07654.04221l-.0072.00331c-.0916.05315-.18535.106-.27969.15535q-.171.09269-.34487.18164c-.08839.047-.17988.09238-.27011.13688l-.07837.03969c-.06278.03222-.1277.06408-.19232.09378-.03964.01922-.08053.03936-.12234.05826l-.0949.046c-.019.00809-.03591.0165-.05493.02459-.04432.02072-.08989.04234-.13638.06268s-.092.042-.13727.06144l-.02027.009c-.025.01048-.05025.02309-.07647.03448s-.05022.02309-.07519.03357l-.00092-.00127c-.01093.00605-.02278.01083-.03245.01594l-.01312.00567-.01185.00478q-.03929.01709-.07484.03143c-.03929.017-.07987.035-.12008.05086-.08453.03652-.16872.07085-.25381.104a21.0884,21.0884,0,0,1-4.68759,1.29167l-.00343.00058c-.61622.09536-1.24854.166-1.87727.2073A7.22522,7.22522,0,0,1,6.83367,22.763a7.3127,7.3127,0,0,1-.44964-.69981,5.10981,5.10981,0,0,0-.59468,1.08943c-.06123.23578-.11657.46911-.16539.69492l-.002-.00041.00041.012c-.08849.40076-.16437.81047-.22561,1.21775-.03357.22362-.06184.44719-.08753.67077a10.22053,10.22053,0,0,0,5.73264,2.95236,10.68353,10.68353,0,0,0,1.49383.12679l.11814-.00346c.74286-.0476,1.48872-.128,2.21772-.24214l-.06187-.39354.00432.00066.061.39232A24.27882,24.27882,0,0,0,20.53585,26.984a24.05252,24.05252,0,0,0,2.77675-1.38359,24.76029,24.76029,0,0,0,2.137-1.39173c.11992-.08712.23753-.17632.3555-.26522A26.231,26.231,0,0,1,23.679,21.75691Z"/>
          <path class="cls-1" d="M36.55563,22.29906"/>
          <path class="cls-1" d="M29.77607,24.46749a26.20945,26.20945,0,0,1,1.42278-2.69777c.01282-.02111.02657-.0417.03944-.06281l-.0031-.00219q-.85354-.62014-1.63155-1.3099-.10222-.08861-.2017-.181l-.07222-.064c-.022-.01978-.04275-.0387-.06383-.05976l-.00534-.0058c-.07888-.07069-.15807-.14355-.2342-.218q-.141-.134-.27929-.27184c-.072-.06957-.14345-.14256-.21365-.2146l-.062-.06228c-.05-.04976-.10039-.10167-.14858-.15392-.03057-.03176-.06235-.06444-.09322-.09838l-.07306-.076c-.01355-.01561-.02678-.029-.04036-.04463-.03336-.03575-.068-.0724-.10177-.11034s-.06835-.07456-.10085-.11156l-.0148-.0165c-.01765-.0205-.03748-.04064-.0564-.062s-.03751-.04064-.05518-.06113l.00092-.00127c-.0091-.00854-.01732-.01831-.02517-.026l-.00946-.01071-.00819-.00976q-.02838-.03212-.053-.06149c-.02838-.03209-.058-.06515-.08549-.09849-.06085-.06909-.11954-.13856-.17732-.20926a21.08785,21.08785,0,0,1-2.677-4.059l-.0016-.00308c-.28114-.55662-.54372-1.13612-.77729-1.72132a7.22519,7.22519,0,0,1,1.06263-6.32278,7.31512,7.31512,0,0,1,.52664-.64389A5.1111,5.1111,0,0,0,24.343,5.18715c-.24046.01444-.4801.03377-.71384.05757l-.0002-.00224-.00936.00407c-.40707.03967-.82065.094-1.22914.16193-.22266.0371-.44366.07921-.66382.12379A10.22023,10.22023,0,0,0,20.6902,11.8967a10.67689,10.67689,0,0,0,.34105,1.45993l.03977.11125c.27484.6918.58179,1.3763.9156,2.03437l.35519-.18047.00066.00432-.35423.17922a24.27793,24.27793,0,0,0,3.26783,4.89046A24.055,24.055,0,0,0,27.43,22.60906a24.76118,24.76118,0,0,0,1.984,1.60231C29.53391,24.29849,29.65508,24.38281,29.77607,24.46749Z"/>
          <path class="cls-1" d="M47.16259,17.28059c-.08809-.224-.18024-.44552-.27484-.65973l.00224-.001-.00753-.009c-.16336-.37452-.34278-.75066-.5336-1.11806-.10416-.20046-.21259-.39779-.3231-.59356a10.22021,10.22021,0,0,0-6.37312.9811,10.677,10.677,0,0,0-1.283.77546l-.09353.07224c-.573.47517-1.12918.97861-1.65187,1.49945l.28137.282-.00389.002L36.62174,18.23a24.021,24.021,0,0,0-5.07446,7.3706,24.77013,24.77013,0,0,0-.91079,2.382c-.0458.141-.08852.28221-.13167.42344a26.32855,26.32855,0,0,1,3.00482.51921c.02426.0057.04832.01246.07252.01826l.00109-.00346q.326-1.00337.74159-1.95646.05271-.12461.1098-.24778l.03855-.08844c.012-.02706.0236-.05261.0371-.07919l.00389-.00687c.04285-.09686.08768-.19468.135-.29009q.08392-.17554.17223-.34965c.04394-.09.09124-.18047.13808-.2695l.04008-.07822c.03186-.06294.06566-.12689.10047-.18889.02078-.03886.042-.07919.06474-.11906l.04976-.093c.01063-.0177.01933-.03443.03-.05215.0237-.0428.04786-.08707.07349-.13088s.04979-.088.075-.13037l.01109-.0192c.014-.02314.02708-.04821.0416-.07283s.02706-.04821.04109-.07135l.00147.00051c.00529-.01134.01208-.02217.01691-.032l.00725-.01231.00676-.01083q.02182-.03692.04211-.0694c.02177-.0369.044-.0753.06723-.11171.04694-.07924.09485-.15652.14423-.23334a21.08917,21.08917,0,0,1,3.03312-3.80027l.00244-.00247c.44247-.43939.9125-.8682,1.39689-1.27117A7.22515,7.22515,0,0,1,46.5468,18.21a7.31549,7.31549,0,0,1,.77513.30189A5.11411,5.11411,0,0,0,47.16259,17.28059Z"/>
          <path class="cls-1" d="M41.72367,35.1457a10.67637,10.67637,0,0,0-1.134-.98065l-.0976-.06662c-.629-.39814-1.27964-.77149-1.93652-1.10769l-.18126.35479-.0031-.0031.18126-.35321a24.02049,24.02049,0,0,0-8.57795-2.54845,24.76318,24.76318,0,0,0-2.5469-.13015c-.14823,0-.29579.00305-.44346.00565a26.27281,26.27281,0,0,1,.43471,3.01837c.00206.02477.00305.04966.005.07446l.00371-.00005q1.055,0,2.08988.1007.13476.0116.26957.02787l.096.00931c.02945.0031.05732.0062.08676.01083l.00776.00155c.10535.01086.21226.02324.31758.03873q.19285.02556.38576.05579c.09915.01394.19985.031.299.048l.08676.01394c.0697.01086.141.02324.21068.03718.04338.00776.08832.01551.13322.02479l.1038.01859c.02014.00465.03875.00776.05889.01241.048.00928.0976.01856.14716.02942s.09915.02017.14716.031l.02172.00463c.02632.0062.05421.01086.08208.01706s.05424.01083.08056.017v.00155c.01241.00153.02482.00463.03565.0062l.01394.0031.01241.00308q.04181.00931.079.01859c.04183.00931.08521.01861.127.02945.08987.02014.17816.04181.26647.065a21.08854,21.08854,0,0,1,4.55157,1.71033l.0031.00155c.55461.28506,1.10766.59954,1.64058.93571a7.225,7.225,0,0,1,2.85675,5.73981,7.31887,7.31887,0,0,1-.04755.83046,5.11412,5.11412,0,0,0,1.12178-.532c.18716-.1542.36923-.31023.54194-.46484l.00163.00183.00671-.01038c.30678-.272.60908-.55883.89836-.85279.15852-.16107.31273-.32521.46479-.49088A10.22,10.22,0,0,0,41.72367,35.1457Z"/>
          <path class="cls-1" d="M24.88521,30.44067a24.7629,24.7629,0,0,0-.66327-2.46245c-.04582-.141-.09429-.28043-.1424-.42011a26.29554,26.29554,0,0,1-2.736,1.34619c-.023.00966-.04654.01836-.06962.02795l.00122.00343q.32605,1.0034.55,2.01871.03059.13179.05678.265l.02085.09421c.00613.02894.01182.05643.0165.08585l.00092.00788c.02222.10352.04348.209.06128.314q.03532.19133.06617.38411c.01739.09859.03229.19964.04674.2992l.01353.08681c.01124.06965.02146.14126.02975.21187.00605.04366.01256.08877.0176.13437l.01439.10446c.00181.0206.0046.03924.00641.05983.006.04852.01249.09856.0175.14906s.01149.1005.016.14952l.00226.02207c.00226.027.00643.05493.00918.08336s.00643.05493.00867.08188l-.00147.00046c.00236.01228.00323.025.00511.03583,0,.00491.00142.00933.00137.01421s.00092.00783.00089.01274q.00408.04268.00674.08089c.00407.04264.00865.08676.01124.12992.00862.09167.01528.18235.02047.27354a21.08813,21.08813,0,0,1-.22009,4.8573l-.00053.00341c-.09971.61556-.22792,1.23875-.38294,1.84948a7.22545,7.22545,0,0,1-4.57611,4.49061,7.32083,7.32083,0,0,1-.80452.21139,5.11476,5.11476,0,0,0,.85258.90237c.20364.13.4087.2551.6105.37248l-.001.00163.01058.00285c.35275.2073.71913.40625,1.089.591.20216.101.40595.19695.6105.2904a10.22009,10.22009,0,0,0,4.57921-4.53967,10.68216,10.68216,0,0,0,.58222-1.38153l.03321-.11341c.18428-.72122.33831-1.45543.455-2.184l-.39341-.06276.002-.00389.39191.06322a24.27721,24.27721,0,0,0,.23079-5.87723A24.06119,24.06119,0,0,0,24.88521,30.44067Z"/>
          <path class="cls-1" d="M54.58461,24.30917c-.119-.79392-.28119-1.58748-.47817-2.36714a12.34009,12.34009,0,0,1-1.001,2.46682,12.55956,12.55956,0,0,1-.88371,1.40267c-.16447.22639-.338.44369-.51542.65676a21.37508,21.37508,0,0,1-6.06053,16.38786c-.32089.3258-.65553.64384-1.001.95021l-.00048.00147q-.34451.30831-.70288.59911a7.19136,7.19136,0,0,1-10.36144-2.73787,7.49589,7.49589,0,0,1-.38655-.90586c-.15606-.61266-.2877-1.24025-.38894-1.86118l-.0016-.02006a21.349,21.349,0,0,1-.25851-2.704c-.15288-.04211-.306-.0831-.45955-.12119l-.02746-.00712c-.06388-.01668-.12776-.03255-.19265-.0472L31.6523,35.953c-.02787-.0059-.05574-.01261-.0832-.01973l-.0002.001.03458.00773-.09175-.01953.02868.00631c-.04028-.00793-.41459-.08564-.41459-.08564l-.25368-.047c-.04089-.00793-.08259-.01526-.12369-.02156l-.12267-.01994c-.07832-.01343-.15786-.02706-.23659-.03825l-.03072-.00448q-.16875-.02655-.3377-.04882l-.02787-.00387c-.07669-.01139-.15461-.02014-.2313-.02807l-.03336-.00936-.08463-.00651.03051.00427-.13976-.01424c-.03326-.00407-.06652-.00692-.09981-.0103a24.433,24.433,0,0,0,.30136,3.732c.00315.02548.00773.05139.01236.07733.11873.73248.27423,1.46718.45752,2.18646l.03652.09818.00066.023a10.75356,10.75356,0,0,0,.57569,1.36152,10.22734,10.22734,0,0,0,5.98788,5.11383,10.42811,10.42811,0,0,0,1.33955.33917,10.24832,10.24832,0,0,0,7.57727-1.58265l.02678-.02225.00053.00343.09-.07662.00445.00633a24.44842,24.44842,0,0,0,2.00854-1.825,24.456,24.456,0,0,0,6.73091-20.72064Z"/>
          <path class="cls-1" d="M40.00177,50.77916a12.36534,12.36534,0,0,1-2.23206-.20384,12.54787,12.54787,0,0,1-1.60691-.40666c-.26622-.08651-.52653-.18441-.78408-.28737a21.37477,21.37477,0,0,1-17.45855-.69978c-.409-.2045-.8149-.42449-1.213-.65841h-.00155q-.39967-.23241-.787-.48335a7.19135,7.19135,0,0,1-.598-10.70038,7.50312,7.50312,0,0,1,.7421-.64758c.53447-.3377,1.09063-.65683,1.64989-.945l.01859-.00773A21.345,21.345,0,0,1,20.223,34.65762c-.0072-.15832-.01551-.31652-.02675-.47425l-.002-.03174c-.00366-.06551-.00854-.13081-.01465-.19672,0,0-.02319-.26812-.025-.29437l-.00081.0002.00264.02726s-.016-.1422-.01912-.17587l-.034-.30545.00163.01546c-.001-.00915-.0358-.27443-.0358-.27443-.00509-.04211-.01119-.08483-.0179-.12653l-.01831-.11718c-.01119-.07791-.02258-.157-.03621-.23415l-.0061-.0356q-.02655-.16753-.05737-.334l-.00509-.02889c-.013-.07608-.02868-.15257-.04476-.22784l-.00163-.03621-.01953-.07954.00529.0295-.02909-.13467c-.00676-.03441-.01465-.06845-.022-.10268a24.43329,24.43329,0,0,0-3.45626,1.43989c-.02324.01083-.04646.02324-.0697.03565-.66.33927-1.31064.71415-1.93807,1.11074l-.08208.0651-.02169.00773a10.75313,10.75313,0,0,0-1.117.96826,10.22724,10.22724,0,0,0-3.01321,7.27507,10.42272,10.42272,0,0,0,.09142,1.37879,10.24813,10.24813,0,0,0,3.84665,6.71736l.02945.01859-.0031.00155.1007.062-.00465.00618A24.44341,24.44341,0,0,0,16.53518,51.953a24.45588,24.45588,0,0,0,21.78645-.00153c.71471-.35667,1.41581-.754,2.09332-1.17983C40.27737,50.77629,40.13965,50.77916,40.00177,50.77916Z"/>
          <path class="cls-1" d="M20.7198,21.1131a24.42686,24.42686,0,0,0-2.4374-2.8421c-.0175-.01874-.03647-.037-.05544-.05528-.52661-.52282-1.08422-1.02578-1.6553-1.5l-.08727-.058-.014-.01821a10.75211,10.75211,0,0,0-1.26606-.76313,10.22722,10.22722,0,0,0-7.85009-.61759,10.4274,10.4274,0,0,0-1.2831.513A10.2484,10.2484,0,0,0,.87123,21.506l-.0086.03374-.00242-.00247-.02782.11491L.825,21.6497a24.46142,24.46142,0,0,0-.55222,2.657,24.45573,24.45573,0,0,0,6.73386,20.7197c.5629.57238,1.16061,1.11906,1.77825,1.634a12.34541,12.34541,0,0,1-.64-2.5842,12.51425,12.51425,0,0,1-.10965-1.6539c0-.27992.01264-.55776.031-.83448A21.37468,21.37468,0,0,1,3.33672,24.76751c.0681-.45218.15189-.90619.25134-1.35712l-.00051-.00147q.09753-.452.2165-.89782a7.19133,7.19133,0,0,1,9.99188-3.87533,7.50336,7.50336,0,0,1,.84518.50563c.48636.404.96175.83428,1.40859,1.27715l.01312.01526a21.34892,21.34892,0,0,1,1.79852,2.0357c.1484-.05579.29632-.1126.44295-.17205l.02584-.01017c.06266-.02462.12491-.04984.18736-.07669l.25978-.11026.43107-.19489-.01505.00651c.00773-.00346.247-.11738.247-.11738.03865-.0177.07751-.037.11535-.05635l.10517-.0533c.07181-.0354.14444-.071.21462-.10843l.02726-.01424q.15166-.07751.30088-.15827l.02746-.01465c.06673-.03519.133-.07263.19794-.11026l.03418-.0116.08361-.05188-.03641.01933.12043-.07018C20.66081,21.148,20.69015,21.13031,20.7198,21.1131Z"/>
          <path class="cls-1" d="M32.334,4.236a10.42935,10.42935,0,0,0-.88437-1.06176A10.24817,10.24817,0,0,0,24.38924.00081l-.03476.00226L24.3561,0l-.11791.00905.00013-.00774A24.44558,24.44558,0,0,0,21.5407.29719,24.45565,24.45565,0,0,0,3.916,13.1042c-.3704.71219-.70558,1.44948-1.0045,2.196A12.34107,12.34107,0,0,1,5.17133,13.893a12.55027,12.55027,0,0,1,1.53917-.61538c.26609-.08641.53449-.16183.80414-.23A21.375,21.375,0,0,1,22.04928,3.35347c.45106-.075.90873-.13554,1.36834-.18034l.00127-.00089q.45993-.047.92079-.07153A7.19134,7.19134,0,0,1,31.113,11.406a7.50687,7.50687,0,0,1-.21973.96c-.23387.58741-.49625,1.17248-.77932,1.73434l-.0105.01719a21.34513,21.34513,0,0,1-1.38026,2.33955c.09892.12394.1987.24712.30057.36821l.0177.02156c.0417.05065.084.1009.12776.15054l.14342.166q.03082.03448.05981.06978l.001-.00081-.02726-.03092.06225.069-.0175-.01953c.0237.02573.06342.06993.0712.07858l.21238.23288-.00956-.01058.18919.19957c.02828.03072.058.061.08727.09012l.08381.08442c.05574.05716.11209.11514.16926.17027l.024.0236q.12023.11992.2429.23639l.022.02116c.05452.0535.11148.10538.168.15624l.0177.02258.06266.05411-.01831-.0177.1066.09561c.02517.02332.05091.04565.07639.0684a24.42775,24.42775,0,0,0,1.9498-3.19638c.01246-.02245.024-.04613.03547-.06983.33452-.66238.64053-1.34815.915-2.03778l.02818-.1009.013-.019a10.75691,10.75691,0,0,0,.33452-1.43989A10.22733,10.22733,0,0,0,32.334,4.236Z"/>
          <path class="cls-1" d="M52.10937,15.7223,52.09648,15.69l.00343.00056-.045-.10932.00737-.00226a24.44528,24.44528,0,0,0-1.115-2.47419A24.45576,24.45576,0,0,0,33.32073.30023C32.52892.168,31.72409.07709,30.92173.02348a12.344,12.344,0,0,1,2.03661,1.71427,12.59713,12.59713,0,0,1,1.0609,1.27349c.16458.22655.31766.45884.46555.6936a21.37506,21.37506,0,0,1,13.71291,10.828c.2107.40585.40976.82237.59438,1.24567l.00125.00092q.18679.42294.35257.8536a7.19137,7.19137,0,0,1-5.8057,9.00828,7.50029,7.50029,0,0,1-.981.0877c-.63089-.04092-1.26843-.10962-1.89024-.20524l-.01961-.00468a21.34561,21.34561,0,0,1-2.65161-.58975c-.0873.13238-.17358.26533-.25729.39959l-.01485.0236c-.03621.05635-.07161.11311-.106.17129l-.10355.17048c-.01546.02726-.03133.05391-.048.07995l.00081.00061.01282-.02177s-.07283.12816-.09032.15725l-.07608.13264c-.01363.02339-.0769.13691-.0769.13691l.00773-.01343c-.00387.00692-.129.237-.129.237-.01953.03519-.03886.0712-.05676.1068l-.05655.11026c-.03743.0712-.07568.14362-.11087.21564l-.01282.026q-.07781.15349-.15176.30779l-.01221.02482c-.03418.06937-.06632.14037-.09744.21076l-.01912.02767-.01912.04516.00244.001-.00285.00631.00122-.00224-.057.12918c-.01447.03123-.0279.06278-.04183.09416a24.42952,24.42952,0,0,0,3.64243.86665c.02517.00488.05126.00849.07736.01213.73332.11344,1.48012.19257,2.22082.24053l.10467-.00437.0221.00646a10.75,10.75,0,0,0,1.47277-.12679A10.22729,10.22729,0,0,0,50.53656,24.587a10.42792,10.42792,0,0,0,.73648-1.1692,10.24792,10.24792,0,0,0,.83634-7.69546Z"/>
        </g>
      </g>
    </g>
  </g>
</svg>
