<svg xmlns="http://www.w3.org/2000/svg" viewBox="0 0 234.00495 232.52994">
  <defs>
    <style>
      .cls-1 {
        fill: #ecedf0;
      }
    </style>
  </defs>
  <title>lcx_i_n_svg</title>
  <g id="Layer_2" data-name="Layer 2">
    <g id="Layer_1-2" data-name="Layer 1">
      <g>
        <path class="cls-1" d="M94.97071,101.5248"/>
        <path class="cls-1" d="M101.006,92.80719c-.069-.08005-.13472-.16336-.20349-.24363l-.01237.00944q-3.64073,2.64512-7.46455,4.89237-.4943.29792-1.00021.57967c-.12008.07094-.24.14177-.35481.2087-.10934.06313-.21325.12236-.3265.18006a.05918.05918,0,0,1-.0307.0141c-.39071.2267-.79065.45211-1.19307.66265q-.72958.39538-1.47109.77481c-.377.20045-.76732.39408-1.15218.5839-.11324.05771-.22106.11162-.33431.16932-.26782.13743-.54474.27335-.82037.4-.16911.082-.34353.16791-.52185.24851-.1332.064-.27172.132-.40481.196-.08124.03449-.15316.0704-.2343.10489-.18907.0884-.38345.1806-.58173.26738s-.39256.17919-.58553.26207c-.0307.0141-.05586.0243-.08645.0384-.10652.04469-.21434.09849-.32617.14709s-.21423.09849-.32075.14318l-.0039-.00542c-.04664.02582-.09719.04621-.13841.068-.02.00629-.036.0179-.056.02419s-.03059.0141-.05055.02039q-.16759.07289-.31923.13407c-.16759.07268-.34071.14936-.5122.21694-.36056.15576-.71971.3022-1.08265.44343a89.95554,89.95554,0,0,1-19.99557,5.50979l-.01464.00249c-2.62858.40677-5.32582.70821-8.00777.88426A30.82019,30.82019,0,0,1,29.15,97.099a31.19334,31.19334,0,0,1-1.918-2.98513A21.79662,21.79662,0,0,0,24.6953,98.761c-.2612,1.00574-.49723,2.00108-.7055,2.9643l-.00868-.00174.00174.0512c-.37748,1.70951-.70116,3.45719-.96236,5.19447-.14318.9539-.2638,1.90757-.37336,2.86125a43.59713,43.59713,0,0,0,24.45341,12.59372,45.5721,45.5721,0,0,0,6.37214.54084l.504-.01475c3.16877-.20306,6.35033-.546,9.46-1.03286l-.26391-1.6787.01844.00282.26011,1.67349a103.56473,103.56473,0,0,0,24.1473-6.8109,102.59945,102.59945,0,0,0,11.84461-5.90191,105.61852,105.61852,0,0,0,9.11559-5.93662c.51155-.37162,1.01323-.75214,1.51643-1.13135A111.89192,111.89192,0,0,1,101.006,92.80719Z"/>
        <path class="cls-1" d="M155.93322,95.1198"/>
        <path class="cls-1" d="M127.01406,104.36957a111.80013,111.80013,0,0,1,6.06907-11.5077c.05467-.09.11335-.17789.16824-.26792l-.01323-.00933q-3.64089-2.64529-6.95962-5.58756-.43605-.378-.86039-.7721c-.10446-.0922-.20892-.1844-.30806-.27291-.09383-.08439-.18234-.16509-.27226-.25491a.05939.05939,0,0,1-.02278-.02473c-.33648-.30155-.67426-.61232-.999-.93q-.60136-.57175-1.19134-1.15956c-.30719-.29678-.61189-.60809-.91137-.91539-.08992-.08992-.17453-.17583-.26445-.26565-.21336-.21228-.42824-.43367-.6338-.65658-.13038-.13548-.266-.27487-.39766-.41967-.10218-.10674-.20957-.21748-.31164-.32433-.05782-.0666-.11422-.12387-.17214-.19037-.14231-.15251-.29016-.30882-.4341-.47066-.14383-.16162-.29157-.318-.4302-.47586-.02278-.02484-.04035-.04567-.06313-.0704-.07528-.08743-.15989-.17334-.24059-.26467s-.16-.17334-.23538-.26076l.00391-.00542c-.03883-.03645-.07387-.0781-.10739-.11075-.01215-.017-.0282-.02864-.04035-.04567s-.02278-.02473-.03493-.04165q-.12105-.137-.22605-.26228c-.12105-.13689-.24753-.2779-.36468-.42011-.25957-.29472-.50992-.59106-.75637-.89261a89.9532,89.9532,0,0,1-11.41908-17.31438l-.00683-.01313c-1.19926-2.37432-2.31933-4.84627-3.31564-7.34252a30.82009,30.82009,0,0,1,4.53279-26.9707,31.20369,31.20369,0,0,1,2.24644-2.7466,21.80211,21.80211,0,0,0-5.20358-.97613c-1.0257.06161-2.04793.144-3.045.24558l-.00087-.00955-.03992.01736c-1.73641.16921-3.50058.40091-5.24306.69074-.94977.15826-1.8925.33789-2.83164.528a43.59583,43.59583,0,0,0-4.421,27.14837,45.54379,45.54379,0,0,0,1.45481,6.22754l.16965.47456c1.17236,2.951,2.48171,5.87078,3.90561,8.67791l1.51512-.76982.00282.01844-1.511.7645a103.561,103.561,0,0,0,13.93941,20.861,102.61019,102.61019,0,0,0,9.2732,9.441,105.62233,105.62233,0,0,0,8.46292,6.83487C125.98109,103.64867,126.498,104.00836,127.01406,104.36957Z"/>
        <path class="cls-1" d="M201.1787,73.7128c-.37574-.95541-.76884-1.90041-1.17236-2.81417l.00955-.00434-.03211-.03818c-.69682-1.59756-1.46219-3.20207-2.27616-4.76926-.4443-.85508-.90682-1.69681-1.37823-2.53193a43.59577,43.59577,0,0,0-27.18547,4.185,45.54428,45.54428,0,0,0-5.473,3.30783l-.399.30817c-2.44429,2.02689-4.81666,4.1744-7.04628,6.39611l1.20023,1.20294-.0166.00846-1.19405-1.201a102.46478,102.46478,0,0,0-21.64585,31.44036,105.66051,105.66051,0,0,0-3.88511,10.16092c-.19536.60126-.37759,1.20381-.56166,1.80626a112.30816,112.30816,0,0,1,12.81749,2.21476c.10348.0243.2061.05315.30936.07788l.00466-.01475q1.39065-4.28,3.16334-8.34555.22486-.53156.46838-1.05694c.05554-.12778.11086-.25577.16444-.37726.05131-.11541.10066-.22443.15826-.33778a.05891.05891,0,0,1,.0166-.02929c.18277-.41317.374-.83046.57566-1.23744q.358-.74878.73467-1.49148c.18744-.38377.38919-.76982.589-1.14958.05771-.11324.11324-.2203.171-.33366.13591-.26847.28007-.54127.42857-.80572.08862-.16574.1793-.33778.27617-.50786.07007-.13006.14221-.26641.21228-.39657.04534-.0755.08244-.14687.12778-.22247.1011-.18256.20414-.37141.31348-.5583s.21239-.37553.31977-.55613c.01649-.0294.03081-.0525.04729-.0819.05988-.09871.11552-.20566.17746-.31066s.11541-.20566.17529-.30437l.00629.00217c.02256-.04838.05152-.09459.07213-.13646.01247-.01681.01855-.03569.03091-.0525s.01649-.02929.02885-.04621q.09307-.1575.17963-.296c.09285-.15739.18776-.32118.2868-.47651.20024-.338.4046-.66764.61525-.99533A89.95883,89.95883,0,0,1,165.53162,87.1335l.01041-.01052c1.8874-1.87427,3.89238-3.70342,5.95864-5.42236A30.81991,30.81991,0,0,1,198.552,77.67721a31.20526,31.20526,0,0,1,3.30642,1.28777A21.815,21.815,0,0,0,201.1787,73.7128Z"/>
        <path class="cls-1" d="M177.97824,149.919a45.54158,45.54158,0,0,0-4.83716-4.18308l-.41631-.28419c-2.683-1.69833-5.45848-3.29091-8.26051-4.725l-.77318,1.51339-.01323-.01323.77318-1.50666a102.46283,102.46283,0,0,0-36.59046-10.87076,105.63085,105.63085,0,0,0-10.86414-.55516c-.63228,0-1.26174.013-1.89163.02408a112.07038,112.07038,0,0,1,1.85431,12.87531c.00879.10565.013.21184.02148.3176l.01584-.00022q4.5003,0,8.9147.42955.57484.04946,1.1499.11888c.13873.01323.27747.02647.40959.0397.12561.01323.24449.02647.3701.04621a.05965.05965,0,0,1,.03308.00662c.4494.04632.90541.09914,1.3547.1652q.82265.109,1.64551.238c.42293.05944.85247.13212,1.2754.20479.12561.01985.24449.0397.3701.05944.29732.04632.60136.09914.89868.15858.18505.03308.37672.06617.56828.10576.14546.02647.29743.05283.44278.07929.08591.01985.16531.03308.25122.05293.20479.03959.41631.07918.62772.1255s.42293.086.62772.13223c.03319.00651.05955.01323.09263.01974.11227.02647.23126.04632.35014.07278s.23137.04621.34364.07268v.00662c.05293.00651.10587.01974.15208.02647.01974.00651.0397.00651.05944.01323.01985.00651.033.00651.05293.01313q.17833.0397.33691.07929c.17844.0397.36349.0794.54192.12561.38334.08591.75995.17833,1.13667.27747a89.95617,89.95617,0,0,1,19.41536,7.29566l.01323.00662c2.36576,1.216,4.72489,2.55742,6.99812,3.99141a30.81913,30.81913,0,0,1,12.18586,24.484,31.21967,31.21967,0,0,1-.20284,3.54245,21.815,21.815,0,0,0,4.7851-2.26922c.79835-.65777,1.575-1.32335,2.31174-1.98285l.00694.00781.02864-.04426c1.3086-1.16021,2.5981-2.38376,3.83207-3.63769.67621-.68706,1.334-1.38724,1.98264-2.09393A43.59474,43.59474,0,0,0,177.97824,149.919Z"/>
        <path class="cls-1" d="M106.15137,129.849a105.62967,105.62967,0,0,0-2.82925-10.50391c-.19546-.60147-.40221-1.19622-.60744-1.79205a112.16735,112.16735,0,0,1-11.67063,5.74235c-.09827.04122-.1985.07832-.297.11921l.00521.01464q1.39082,4.28016,2.34623,8.61109.13049.56215.24222,1.13038c.03026.13613.06064.27215.08895.40189.02614.12344.05044.2407.0704.3662a.0609.0609,0,0,1,.0039.03363c.0948.44159.18549.89163.26142,1.3394q.15067.81614.28224,1.63846c.07419.42054.13776.85161.19937,1.27627.02.1255.03775.24482.05771.37032.04794.2971.09155.60256.12691.90378.02582.18624.05358.37867.07506.57316.01974.14644.04165.29916.06139.4456.0077.08786.01963.16737.02733.25523.0256.207.05326.42043.07463.63586s.049.42868.06834.63781c.0039.03352.00575.06074.00965.09415.00965.115.02744.2343.03916.35557.0115.12127.02744.2343.037.34928l-.00629.002c.01009.05239.01378.10674.0218.15284-.00011.02093.00607.03981.00586.06064s.0039.03341.0038.05434q.01741.18207.02874.345c.01736.18191.03688.3701.04794.55418.03677.391.06519.77785.08732,1.16682a89.95441,89.95441,0,0,1-.93882,20.7195l-.00228.01454c-.42532,2.62576-.97223,5.28406-1.63347,7.88921a30.82117,30.82117,0,0,1-19.52,19.15535,31.228,31.228,0,0,1-3.43181.90172,21.81771,21.81771,0,0,0,3.63682,3.84921c.86864.5545,1.74335,1.08818,2.60417,1.58889l-.00434.00694.04512.01215c1.50471.88426,3.06756,1.73293,4.64517,2.52087.86235.43085,1.73163.84011,2.60417,1.23874a43.59524,43.59524,0,0,0,19.53326-19.36459,45.56627,45.56627,0,0,0,2.48355-5.89313l.14166-.48378c.78609-3.07646,1.4431-6.20835,1.941-9.31626l-1.67816-.26771.00857-.0166,1.67176.26966a103.55787,103.55787,0,0,0,.98448-25.07017A102.63646,102.63646,0,0,0,106.15137,129.849Z"/>
        <path class="cls-1" d="M232.83839,103.69422c-.50743-3.38658-1.19947-6.77164-2.03969-10.09736a52.63839,52.63839,0,0,1-4.26986,10.52257,53.5746,53.5746,0,0,1-3.76959,5.98327c-.70159.96572-1.44158,1.8926-2.1986,2.80148a91.17842,91.17842,0,0,1-25.852,69.90476c-1.3688,1.38973-2.79628,2.74638-4.27007,4.05324l-.00206.00629q-1.46957,1.31516-2.99825,2.55558A30.67576,30.67576,0,0,1,143.24,177.74529a31.97481,31.97481,0,0,1-1.64887-3.86407c-.66569-2.61339-1.22724-5.29046-1.65907-7.93911l-.00683-.08558a91.06735,91.06735,0,0,1-1.10272-11.53428c-.65213-.17963-1.30512-.35448-1.96029-.517l-.11715-.03037c-.27248-.07116-.545-.13884-.82178-.20132l-.906-.21087c-.11888-.02517-.23777-.0538-.35492-.08417l-.00087.00434.14752.033-.39136-.08331.12236.0269c-.17182-.03384-1.76851-.36533-1.76851-.36533l-1.08211-.20045c-.17442-.03384-.35231-.06508-.5276-.092l-.52326-.085c-.33409-.05727-.67339-.11541-1.00922-.16314l-.131-.01909q-.71981-.11324-1.4405-.20826l-.11888-.01649c-.32715-.0486-.6595-.08591-.98665-.11975L126.81,151.95l-.361-.02777.13017.01822-.59616-.06074c-.14188-.01736-.28376-.0295-.42575-.04393a104.22248,104.22248,0,0,0,1.28549,15.91933c.01345.10869.033.21922.05272.32986.50645,3.12451,1.16975,6.25846,1.95161,9.32667l.15576.41881.00282.09817a45.87087,45.87087,0,0,0,2.45568,5.80776,43.62617,43.62617,0,0,0,25.54213,21.81376,44.48259,44.48259,0,0,0,5.714,1.44679,43.71567,43.71567,0,0,0,32.3219-6.751l.11422-.09491.00228.01464.3841-.32682.019.027a104.2882,104.2882,0,0,0,8.5677-7.78476,104.32038,104.32038,0,0,0,28.71166-88.38683Z"/>
        <path class="cls-1" d="M170.63323,216.60573a52.74614,52.74614,0,0,1-9.52116-.8695,53.52472,53.52472,0,0,1-6.85451-1.73467c-1.13558-.369-2.246-.78663-3.3446-1.22583a91.1771,91.1771,0,0,1-74.47194-2.985c-1.74465-.87232-3.47607-1.81071-5.1744-2.80853H71.26q-1.70484-.99137-3.357-2.06182a30.67573,30.67573,0,0,1-2.55092-45.644,32.0056,32.0056,0,0,1,3.16551-2.76233c2.27985-1.4405,4.65222-2.80181,7.03782-4.031l.07929-.033A91.05028,91.05028,0,0,1,86.264,147.837c-.0307-.67534-.06617-1.35014-.11411-2.023l-.00868-.13537c-.01562-.27942-.03645-.558-.06248-.83913,0,0-.09893-1.14372-.10674-1.25566l-.00347.00087.01128.11628s-.06834-.60657-.08157-.75019l-.14492-1.303.00694.066c-.00434-.039-.15273-1.17062-.15273-1.17062-.02169-.17963-.04773-.36186-.07636-.53975l-.0781-.49983c-.04773-.33236-.09632-.66992-.15446-.9988l-.026-.15186q-.11324-.71461-.24471-1.42488l-.02169-.12322c-.05554-.32455-.12236-.65083-.19091-.9719l-.00694-.15446-.08331-.3393.02256.12583-.12409-.57446c-.02885-.14676-.06248-.292-.09394-.438a104.22369,104.22369,0,0,0-14.74318,6.14207c-.09914.04621-.19818.09914-.29732.15208-2.81515,1.44722-5.59071,3.0463-8.26713,4.738l-.35014.27769-.09253.033a45.869,45.869,0,0,0-4.76459,4.13026,43.62573,43.62573,0,0,0-12.85329,31.03283,44.45959,44.45959,0,0,0,.39,5.88141A43.71487,43.71487,0,0,0,59.9597,215.49368l.12561.07929-.01323.00662.42955.26434-.01985.02636A104.26682,104.26682,0,0,0,70.53314,221.613a104.32,104.32,0,0,0,92.93318-.00651c3.04869-1.52142,6.03935-3.21639,8.92934-5.03274C171.80884,216.59347,171.22136,216.60573,170.63323,216.60573Z"/>
        <path class="cls-1" d="M88.38326,90.06092A104.19625,104.19625,0,0,0,77.98619,77.93754c-.07463-.07994-.15555-.15783-.23647-.23582-2.24633-2.23017-4.62488-4.37562-7.06093-6.39828l-.37227-.24731-.05988-.07767a45.86466,45.86466,0,0,0-5.40056-3.25522A43.62567,43.62567,0,0,0,31.3704,65.08881,44.47956,44.47956,0,0,0,25.89716,67.277,43.716,43.716,0,0,0,3.71634,91.737l-.03666.14394-.0103-.01052-.11867.49018-.03135-.01074a104.34366,104.34366,0,0,0-2.35556,11.33393A104.31937,104.31937,0,0,0,29.888,192.06663c2.40112,2.44158,4.95073,4.77349,7.58539,6.97025a52.66111,52.66111,0,0,1-2.73022-11.02327,53.38129,53.38129,0,0,1-.46773-7.055c0-1.19405.05391-2.37921.13212-3.55959a91.17671,91.17671,0,0,1-20.17433-71.74975c.29049-1.92883.6479-3.86548,1.07213-5.789l-.00217-.00629q.416-1.92791.92352-3.82979A30.67563,30.67563,0,0,1,58.84852,79.49345a32.00665,32.00665,0,0,1,3.60525,2.15684c2.07462,1.72317,4.10249,3.55872,6.00854,5.44785l.056.06508a91.06686,91.06686,0,0,1,7.67184,8.68355c.633-.238,1.264-.48031,1.88946-.73392l.11021-.04339c.26727-.105.53281-.2126.79922-.32715l1.10814-.47033,1.8388-.83132-.06421.02777c.033-.01475,1.05347-.5007,1.05347-.5007.16488-.0755.33062-.15793.492-.24037L83.86587,92.5c.30632-.151.61612-.30285.9155-.46252l.11628-.06074q.64692-.33062,1.28343-.67512l.11715-.06248c.28463-.15012.56752-.30979.84434-.47033l.14579-.04946.35665-.22128-.15533.08244.51372-.29938C88.13161,90.20974,88.25678,90.13436,88.38326,90.06092Z"/>
        <path class="cls-1" d="M137.92528,18.06928a44.48785,44.48785,0,0,0-3.77241-4.5291A43.715,43.715,0,0,0,104.03575.00347l-.14828.00965L103.89442,0l-.503.03862.00054-.033A104.27608,104.27608,0,0,0,91.88493,1.2677a104.319,104.319,0,0,0-75.1808,54.63013c-1.58,3.038-3.00975,6.183-4.28483,9.36735A52.64258,52.64258,0,0,1,22.059,59.26271a53.535,53.535,0,0,1,6.56554-2.625c1.135-.36858,2.28-.69031,3.43018-.98112a91.17831,91.17831,0,0,1,61.9996-41.35191c1.92406-.31977,3.87632-.57815,5.83683-.76928l.00542-.0038q1.96192-.20029,3.92774-.30513A30.67568,30.67568,0,0,1,132.71693,48.6538a32.02162,32.02162,0,0,1-.9373,4.09522c-.99761,2.50568-2.11681,5.00139-3.32431,7.39806l-.0448.07333a91.05069,91.05069,0,0,1-5.8877,9.97967c.422.52869.84759,1.05412,1.28213,1.57066l.0755.092c.17789.21607.35839.43041.545.64215l.61178.7081q.13147.14709.25512.29764l.00434-.00347-.11628-.1319.26554.29417-.07463-.08331c.1011.10977.27053.2983.30372.33518.02321.02538.906.99338.906.99338l-.04079-.04512c.02343.02517.807.85128.807.85128.12062.131.24731.26033.37227.38442l.35752.36012c.23777.24384.47814.49116.722.72632l.1024.10066q.51285.51155,1.03612,1.00835l.09372.09025c.23256.22822.47554.4495.71678.66645l.0755.09632.26727.23083-.0781-.0755.45471.40785c.10739.09947.21716.19471.32585.29179a104.20005,104.20005,0,0,0,8.31713-13.6346c.05315-.09578.10218-.19677.15132-.29786,1.42694-2.82546,2.73228-5.75071,3.90312-8.69244l.12019-.43041.05554-.08114a45.88514,45.88514,0,0,0,1.42694-6.14207A43.62613,43.62613,0,0,0,137.92528,18.06928Z"/>
        <path class="cls-1" d="M222.27991,67.06569l-.055-.138.01464.00239-.1921-.46632.03146-.00965a104.27481,104.27481,0,0,0-4.75613-10.554,104.31953,104.31953,0,0,0-75.1885-54.61944C138.75671.71672,135.3236.32883,131.901.10017a52.65506,52.65506,0,0,1,8.68745,7.31247,53.73483,53.73483,0,0,1,4.52542,5.43223c.702.96637,1.355,1.95725,1.98589,2.95866a91.17834,91.17834,0,0,1,58.49436,46.18853c.89879,1.7312,1.7479,3.508,2.5354,5.31357l.00532.0039q.79677,1.80409,1.504,3.64116a30.6758,30.6758,0,0,1-24.765,38.42611,31.99356,31.99356,0,0,1-4.1846.37412c-2.69117-.17453-5.41065-.46762-8.06309-.87547l-.08363-.02a91.05271,91.05271,0,0,1-11.31083-2.51566c-.37238.5647-.74042,1.13179-1.09751,1.70452l-.06335.10066c-.15446.24037-.30545.48248-.45211.73066l-.44169.72719c-.066.11628-.13364.23-.20479.341l.00347.0026.05467-.09285s-.31066.54669-.38529.67079l-.32455.56579c-.05814.09979-.328.584-.328.584l.033-.05727c-.01649.0295-.55017,1.011-.55017,1.011-.08331.15012-.16574.30372-.24211.45558l-.24124.47033c-.15967.30372-.32281.61265-.47293.91984l-.05467.11107q-.33192.65473-.64736,1.31293l-.05207.10587c-.14579.29591-.28289.59876-.41566.899l-.08157.118-.08157.19264.01041.00434-.01215.0269.00521-.00955-.243.551c-.06172.1332-.119.26782-.17844.40167a104.2076,104.2076,0,0,0,15.5373,3.6968c.10739.02083.21868.03623.33.05174,3.12809.48389,6.31367.82145,9.47322,1.026l.44647-.01866.09426.02755a45.85553,45.85553,0,0,0,6.28232-.54084,43.626,43.626,0,0,0,28.6392-17.55106,44.48176,44.48176,0,0,0,3.14154-4.98739,43.714,43.714,0,0,0,3.56751-32.82608Z"/>
      </g>
    </g>
  </g>
</svg>
