<svg xmlns="http://www.w3.org/2000/svg" viewBox="0 0 263.44417 173.16086">
  <defs>
    <style>
      .cls-1 {
        fill: #008ca0;
      }
    </style>
  </defs>
  <title>lcx_v_lc_svg</title>
  <g id="Layer_2" data-name="Layer 2">
    <g id="Layer_1-2" data-name="Layer 1">
      <g>
        <g>
          <path class="cls-1" d="M0,129.48127H4.85311v29.75064H23.2473v4.22233H0Z"/>
          <path class="cls-1" d="M27.32507,129.77237a3.06736,3.06736,0,0,1,3.1547-3.05754,3.03559,3.03559,0,1,1-3.1547,3.05754Zm.82511,7.95923h4.65918v25.72264H28.15018Z"/>
          <path class="cls-1" d="M66.2969,137.7316v22.22826c0,9.07584-4.61059,13.201-13.34636,13.201-4.70776,0-9.4641-1.31054-12.27912-3.83407l2.23282-3.59155a15.69825,15.69825,0,0,0,9.90055,3.349c6.06649,0,8.83293-2.815,8.83293-8.639V158.4068a11.76864,11.76864,0,0,1-9.26977,3.97981c-7.42561,0-13.05526-5.04744-13.05526-12.47306s5.62964-12.42447,13.05526-12.42447a11.73711,11.73711,0,0,1,9.51268,4.22233V137.7316Zm-4.562,12.182c0-4.99886-3.68871-8.34789-8.83293-8.34789-5.19319,0-8.88151,3.349-8.88151,8.34789,0,4.95028,3.68832,8.39608,8.88151,8.39608C58.04618,158.30963,61.73489,154.86383,61.73489,149.91356Z"/>
          <path class="cls-1" d="M99.5917,148.6516v14.80264H94.93252V149.18561c0-5.04744-2.52392-7.52278-6.94018-7.52278-4.95067,0-8.15356,2.96037-8.15356,8.54183v13.24959H75.1796V127.44278h4.65918v13.92895c1.94132-2.47534,5.14421-3.88265,9.07544-3.88265C95.175,137.48908,99.5917,141.08063,99.5917,148.6516Z"/>
          <path class="cls-1" d="M122.69444,161.94977a8.78741,8.78741,0,0,1-5.62964,1.79558c-5.19319,0-8.15356-2.86321-8.15356-8.0564V141.56567h-4.36808V137.7316h4.36808V132.102h4.65918v5.62964h7.377v3.83407h-7.377v13.92895c0,2.76644,1.45589,4.3195,4.0284,4.3195a5.867,5.867,0,0,0,3.63974-1.21338Z"/>
          <path class="cls-1" d="M126.2378,146.46776c0-10.0463,7.66813-17.37515,18.00593-17.37515,5.24138,0,9.80339,1.796,12.90951,5.29035l-3.1547,3.05754a12.58738,12.58738,0,0,0-9.56087-4.0284c-7.66813,0-13.34636,5.53287-13.34636,13.05565,0,7.52238,5.67822,13.05526,13.34636,13.05526a12.6318,12.6318,0,0,0,9.56087-4.07658l3.1547,3.05754c-3.10612,3.49438-7.66813,5.33854-12.95809,5.33854C133.90593,163.84251,126.2378,156.51406,126.2378,146.46776Z"/>
          <path class="cls-1" d="M187.82734,148.6516v14.80264h-4.65918V149.18561c0-5.04744-2.52392-7.52278-6.94018-7.52278-4.95067,0-8.15356,2.96037-8.15356,8.54183v13.24959h-4.65918V127.44278h4.65918v13.92895c1.94132-2.47534,5.14421-3.88265,9.07544-3.88265C183.41068,137.48908,187.82734,141.08063,187.82734,148.6516Z"/>
          <path class="cls-1" d="M216.85122,147.92365v15.53059H212.435V160.057c-1.55306,2.32959-4.41666,3.68832-8.44506,3.68832-5.824,0-9.51229-3.10612-9.51229-7.571,0-4.12556,2.66927-7.52278,10.3374-7.52278h7.377v-.92228c0-3.93084-2.281-6.21224-6.8916-6.21224a13.00967,13.00967,0,0,0-8.15356,2.76644l-1.94132-3.49438a17.13044,17.13044,0,0,1,10.6285-3.30005C212.8714,137.48908,216.85122,140.8863,216.85122,147.92365Zm-4.65918,7.66813v-3.59115h-7.1827c-4.611,0-5.92114,1.79558-5.92114,3.97942,0,2.5725,2.13526,4.17375,5.67822,4.17375C208.26081,160.15379,211.02724,158.55255,212.192,155.59178Z"/>
          <path class="cls-1" d="M224.66588,129.77237a3.06736,3.06736,0,0,1,3.1547-3.05754,3.03559,3.03559,0,1,1-3.1547,3.05754Zm.82511,7.95923h4.65918v25.72264H225.491Z"/>
          <path class="cls-1" d="M263.44417,148.6516v14.80264H258.785V149.18561c0-5.04744-2.52392-7.52278-6.94018-7.52278-4.95067,0-8.15356,2.96037-8.15356,8.54183v13.24959h-4.65918V137.7316h4.46485v3.88265c1.89274-2.62069,5.19319-4.12517,9.26977-4.12517C259.02751,137.48908,263.44417,141.08063,263.44417,148.6516Z"/>
        </g>
        <g>
          <path class="cls-1" d="M121.22078,48.39118"/>
          <path class="cls-1" d="M124.09749,44.236c-.03288-.03816-.06421-.07786-.097-.11612l-.00589.0045q-1.73533,1.26078-3.55793,2.33192-.23561.142-.47675.2763c-.05723.03381-.11442.06757-.16912.09947-.05212.03009-.10165.05832-.15562.08583a.02821.02821,0,0,1-.01463.00672c-.18623.10806-.37686.21549-.56867.31585q-.34775.18845-.70118.36931c-.17972.09555-.36574.18783-.54918.27831-.054.02751-.10537.0532-.15935.08071-.12765.06551-.25965.13029-.391.19068-.0806.03909-.16374.08-.24874.11845-.06349.0305-.12951.06292-.193.09343-.03872.01644-.073.03355-.11168.05-.09012.04214-.18277.08608-.27728.12745s-.18711.08541-.27909.12491l-.04121.0183c-.05077.0213-.10216.04695-.15547.07011s-.10211.04695-.15288.06825l-.00186-.00259c-.02223.01231-.04633.022-.066.03242-.00951.003-.01717.00853-.02668.01153s-.01458.00672-.02409.00972q-.07988.03474-.15216.0639c-.07988.03464-.1624.07119-.24414.1034-.17186.07424-.343.144-.516.21136a42.87677,42.87677,0,0,1-9.53077,2.62621l-.007.00119c-1.2529.19388-2.53852.33756-3.81686.42148a14.69026,14.69026,0,0,1-11.55858-6.02733,14.86812,14.86812,0,0,1-.9142-1.42284,10.38923,10.38923,0,0,0-1.20911,2.215c-.1245.47938-.237.9538-.33627,1.41292L87.384,48.4859l.00083.0244c-.17992.81483-.3342,1.64785-.4587,2.47591-.06825.45467-.12574.90923-.178,1.3638a20.78031,20.78031,0,0,0,11.65557,6.00272,21.72167,21.72167,0,0,0,3.03724.25779l.24021-.007c1.51037-.09679,3.02685-.26027,4.509-.49231l-.12579-.80014.00879.00134.124.79766a49.36351,49.36351,0,0,0,11.50967-3.24638,48.90342,48.90342,0,0,0,5.64566-2.81311,50.34244,50.34244,0,0,0,4.34489-2.82966c.24383-.17713.48295-.3585.7228-.53925A53.33261,53.33261,0,0,1,124.09749,44.236Z"/>
          <path class="cls-1" d="M150.27819,45.33828"/>
          <path class="cls-1" d="M136.494,49.74712a53.28887,53.28887,0,0,1,2.89278-5.48508c.02606-.04291.054-.08479.08019-.1277l-.00631-.00445q-1.73541-1.26086-3.31726-2.66328-.20784-.18016-.4101-.368c-.04979-.04395-.09958-.08789-.14683-.13008-.04472-.04022-.08691-.07869-.12977-.1215a.02831.02831,0,0,1-.01086-.01179c-.16038-.14373-.32138-.29186-.47618-.44329q-.28664-.27252-.56784-.5527c-.14642-.14146-.29165-.28984-.4344-.43631-.04286-.04286-.08319-.08381-.126-.12662-.1017-.10118-.20412-.20671-.3021-.313-.06215-.06458-.12677-.131-.18954-.2-.0487-.05087-.09989-.10366-.14854-.15459-.02756-.03175-.05444-.059-.08205-.09074-.06783-.07269-.1383-.1472-.20691-.22434s-.139-.15159-.20505-.22682l-.03009-.03355c-.03588-.04167-.07621-.08262-.11468-.12615s-.07626-.08262-.11219-.12429l.00186-.00259c-.01851-.01737-.03521-.03723-.05119-.05279-.00579-.00812-.01344-.01365-.01923-.02177l-.01665-.01985q-.0577-.0653-.10775-.125c-.0577-.06525-.118-.13246-.17382-.20024-.12372-.14047-.24305-.28172-.36052-.42546a42.87565,42.87565,0,0,1-5.44284-8.25279l-.00326-.00626c-.57162-1.13171-1.10549-2.30995-1.58038-3.49977A14.69021,14.69021,0,0,1,126.857,12.3209a14.87307,14.87307,0,0,1,1.07075-1.30915,10.39184,10.39184,0,0,0-2.48025-.46527c-.4889.02937-.97614.06866-1.45138.11705l-.00041-.00455-.019.00827c-.82765.08066-1.66853.19109-2.49907.32924-.4527.07543-.902.16105-1.34968.25169a20.77969,20.77969,0,0,0-2.10722,12.94011,21.70819,21.70819,0,0,0,.69343,2.96832l.08086.2262c.5588,1.40656,1.18289,2.79827,1.86159,4.13627l.72218-.36693.00134.00879-.72021.3644a49.36171,49.36171,0,0,0,6.64413,9.94325,48.90853,48.90853,0,0,0,4.42,4.5,50.34423,50.34423,0,0,0,4.0338,3.2578C136.00169,49.40351,136.24805,49.575,136.494,49.74712Z"/>
          <path class="cls-1" d="M171.84418,35.13476c-.1791-.45539-.36646-.90582-.5588-1.34136l.00455-.00207-.0153-.0182c-.33213-.76147-.69694-1.52625-1.08492-2.27324-.21177-.40757-.43223-.80878-.65693-1.20683A20.77966,20.77966,0,0,0,156.575,32.28784a21.70841,21.70841,0,0,0-2.60868,1.57666l-.19016.14689c-1.16506.96611-2.29583,1.9897-3.35857,3.04867l.57208.57338-.00791.004-.56914-.57245a48.83922,48.83922,0,0,0-10.31736,14.98586,50.36244,50.36244,0,0,0-1.85181,4.84314c-.09312.28658-.18.57379-.26771.86094a53.531,53.531,0,0,1,6.10938,1.05565c.04932.01158.09823.02533.14745.03712l.00222-.007q.66285-2.04,1.50779-3.97786.10718-.25337.22325-.50379c.02647-.06091.05284-.12191.07838-.17982.02446-.055.048-.107.07543-.161a.02808.02808,0,0,1,.00791-.014c.08712-.19693.17827-.39583.27438-.58982q.17062-.3569.35018-.7109c.08934-.18292.18551-.36693.28074-.54794.02751-.054.054-.105.08148-.159.06478-.128.13349-.258.20428-.384.04224-.079.08546-.161.13163-.24207.0334-.062.06778-.127.10118-.189.02161-.036.03929-.07.06091-.106.04819-.087.0973-.177.14942-.26611s.10123-.179.15242-.26508l.02254-.039c.02854-.047.05506-.098.08458-.14807s.055-.098.08355-.14508l.003.001c.01075-.02306.02456-.04508.03438-.065.00595-.008.00884-.017.01474-.025s.00786-.014.01375-.022q.04436-.07507.08562-.1411c.04426-.075.0895-.15309.1367-.22713.09544-.1611.19285-.31823.29325-.47442a42.87834,42.87834,0,0,1,6.16692-7.72667l.005-.005c.89962-.89336,1.85528-1.76521,2.84015-2.58454a14.69012,14.69012,0,0,1,12.89383-1.91773,14.87381,14.87381,0,0,1,1.576.61381A10.398,10.398,0,0,0,171.84418,35.13476Z"/>
          <path class="cls-1" d="M160.78582,71.458a21.70712,21.70712,0,0,0-2.3056-1.99384l-.19843-.13546c-1.27885-.8095-2.60175-1.56859-3.93732-2.25214l-.36853.72135-.00631-.00631.36853-.71814A48.83829,48.83829,0,0,0,136.89753,61.892a50.34831,50.34831,0,0,0-5.17833-.26461c-.30137,0-.6014.0062-.90163.01148a53.41768,53.41768,0,0,1,.88385,6.13694c.00419.05036.0062.101.01024.15138l.00755-.0001q2.145,0,4.24914.20474.274.02358.54809.05667c.06613.00631.13225.01262.19523.01892.05987.00631.11654.01262.17641.022a.02843.02843,0,0,1,.01577.00315c.2142.02208.43156.04726.64571.07874q.39211.052.78432.11343c.20159.02833.40633.063.60791.09761.05987.00946.11654.01892.17641.02833.14172.02208.28664.04726.42835.07559.0882.01577.17956.03154.27087.05041.06933.01262.14177.02518.211.03779.04095.00946.07879.01577.11974.02523.09761.01887.19843.03774.2992.05982s.20159.041.2992.063l.04415.00941c.05351.01262.11023.02208.16689.03469s.11028.022.16379.03464v.00315c.02523.0031.05046.00941.07249.01262.00941.0031.01892.0031.02833.00631s.01572.0031.02523.00626q.085.01892.16059.03779c.085.01892.17325.03785.2583.05987.18272.04095.36222.085.54179.13225a42.87706,42.87706,0,0,1,9.25421,3.47743l.00631.00315c1.12762.57958,2.25209,1.219,3.33561,1.90248a14.68975,14.68975,0,0,1,5.80832,11.67015,14.88068,14.88068,0,0,1-.09668,1.68849,10.398,10.398,0,0,0,2.28079-1.08161c.38053-.31352.75071-.63077,1.10188-.94511l.00331.00372.01365-.02109c.62373-.553,1.23837-1.13621,1.82653-1.73388.32231-.32748.63583-.66122.945-.99806A20.77917,20.77917,0,0,0,160.78582,71.458Z"/>
          <path class="cls-1" d="M126.55,61.89174a50.34773,50.34773,0,0,0-1.34855-5.00663c-.09317-.28669-.19171-.57017-.28953-.85417a53.4639,53.4639,0,0,1-5.56273,2.73706c-.04684.01965-.09461.03733-.14156.05682l.00248.007q.66292,2.04011,1.11832,4.10442.0622.26795.11545.53879c.01442.06489.0289.12972.0424.19156.01246.05884.024.11473.03355.17455a.029.029,0,0,1,.00186.016c.04519.21048.08841.425.1246.63842q.07181.389.13453.781c.03536.20045.06566.40591.095.60833.00951.05982.018.11669.02751.17651.02285.14161.04364.28721.06049.43078.01231.08877.02554.18049.03578.27319.00941.0698.01985.14259.02926.21239.00367.04188.00936.07978.013.12166.0122.09865.02539.2004.03557.30308s.02337.20433.03257.304l.0046.04488c.0046.0548.01308.11168.01866.16948s.01308.11168.01763.16648l-.003.00093c.00481.025.00657.05087.01039.07285-.00005.01.0029.019.00279.0289s.00186.01592.00181.0259q.0083.08678.0137.16446c.00827.0867.01758.17641.02285.26415.01753.18639.03107.37076.04162.55616a42.87623,42.87623,0,0,1-.44748,9.87583l-.00109.00693c-.20272,1.25155-.46341,2.51862-.77858,3.76035a14.69072,14.69072,0,0,1-9.30411,9.13028,14.88466,14.88466,0,0,1-1.63575.4298,10.39928,10.39928,0,0,0,1.73347,1.8347c.414.2643.831.51868,1.24126.75733l-.00207.00331.02151.00579c.71721.42148,1.46214.826,2.21409,1.20156.411.20536.82537.40043,1.24126.59044a20.77941,20.77941,0,0,0,9.31041-9.23,21.7189,21.7189,0,0,0,1.18377-2.80892l.06752-.23059c.37469-1.46638.68784-2.95917.92516-4.44054l-.79988-.1276.00408-.00791.79683.12853A48.8403,48.8403,0,0,0,126.55,61.89174Z"/>
          <path class="cls-1" d="M186.93458,49.42523c-.24186-1.61419-.57172-3.22766-.97221-4.81285a25.08977,25.08977,0,0,1-2.0352,5.01552,25.536,25.536,0,0,1-1.79675,2.85189c-.33441.4603-.68712.9021-1.048,1.33531a43.45964,43.45964,0,0,1-12.32222,33.31968c-.65243.66241-1.33283,1.309-2.03531,1.932l-.001.003q-.70046.62686-1.4291,1.2181a14.62142,14.62142,0,0,1-21.0668-5.56661,15.24061,15.24061,0,0,1-.78592-1.84178c-.3173-1.24566-.585-2.52167-.79078-3.78413l-.00326-.04079a43.40671,43.40671,0,0,1-.5256-5.49774c-.31083-.08562-.62208-.169-.93436-.24641l-.05584-.01448c-.12988-.03392-.25975-.06618-.3917-.096l-.43182-.10051c-.05667-.012-.11333-.02564-.16917-.04012l-.00041.00207.07031.01572-.18654-.03971.05832.01282c-.0819-.01613-.843-.17413-.843-.17413l-.51578-.09555c-.08314-.01613-.16793-.031-.25148-.04384l-.24941-.04053c-.15924-.0273-.321-.055-.481-.07776l-.06246-.0091q-.3431-.054-.6866-.09927l-.05667-.00786c-.15593-.02316-.31435-.04095-.47028-.05708l-.06783-.019-.17206-.01324.062.00869-.28415-.029c-.06763-.00827-.13525-.01406-.20293-.02094a49.677,49.677,0,0,0,.61272,7.58785c.00641.05181.01572.10449.02513.15723.2414,1.48928.55756,2.98306.93022,4.4455l.07424.19962.00134.04679a21.86406,21.86406,0,0,0,1.17048,2.76823,20.79415,20.79415,0,0,0,12.1745,10.3974,21.20236,21.20236,0,0,0,2.72356.6896,20.83681,20.83681,0,0,0,15.406-3.21784l.05444-.04524.00109.007.18308-.15578.009.01287a49.70835,49.70835,0,0,0,4.08374-3.71056,49.72368,49.72368,0,0,0,13.68524-42.12905Z"/>
          <path class="cls-1" d="M157.28486,103.24382a25.14113,25.14113,0,0,1-4.5382-.41444,25.51223,25.51223,0,0,1-3.26716-.82682c-.54127-.17589-1.07054-.37494-1.59418-.58429a43.459,43.459,0,0,1-35.4966-1.42279c-.83158-.41579-1.65685-.86306-2.46635-1.33867h-.00315q-.8126-.47253-1.60008-.98275a14.6214,14.6214,0,0,1-1.21588-21.75594,15.25527,15.25527,0,0,1,1.50882-1.31665c1.08667-.6866,2.21745-1.33547,3.35454-1.92135l.03779-.01572a43.39858,43.39858,0,0,1,5.06634-2.19879c-.01463-.3219-.03154-.64354-.05439-.96424l-.00414-.06452c-.00745-.13318-.01737-.266-.02978-.4,0,0-.04715-.54515-.05087-.5985l-.00165.00041.00538.05542s-.03257-.28912-.03888-.35757l-.06907-.621.00331.03143c-.00207-.01861-.0728-.558-.0728-.558-.01034-.08562-.02275-.17248-.0364-.25727l-.03723-.23824c-.02275-.15842-.04591-.31931-.07362-.47607l-.01241-.07238q-.054-.34061-.11664-.67916l-.01034-.05873c-.02647-.15469-.05832-.31021-.091-.46325l-.00331-.07362-.03971-.16172.01075.06-.05915-.27381c-.01375-.07-.02978-.13918-.04477-.20877a49.67759,49.67759,0,0,0-7.02725,2.92758c-.04726.022-.09446.04726-.14172.07249-1.34182.68981-2.66478,1.452-3.94048,2.25835l-.16689.13236-.0441.01572a21.86317,21.86317,0,0,0-2.271,1.96866,20.79394,20.79394,0,0,0-6.12644,14.79161,21.19139,21.19139,0,0,0,.18587,2.80334,20.83643,20.83643,0,0,0,7.821,13.65768l.05987.03779-.00631.00315.20474.126-.00946.01256a49.69816,49.69816,0,0,0,4.79092,2.73721,49.7235,49.7235,0,0,0,44.296-.0031c1.45314-.72517,2.87862-1.53307,4.25612-2.39882C157.84521,103.238,157.56519,103.24382,157.28486,103.24382Z"/>
          <path class="cls-1" d="M118.08091,42.927a49.66452,49.66452,0,0,0-4.9557-5.77854c-.03557-.0381-.07414-.07523-.11271-.1124-1.0707-1.063-2.20442-2.08561-3.36555-3.0497l-.17744-.11788-.02854-.037a21.86112,21.86112,0,0,0-2.57414-1.55158,20.79391,20.79391,0,0,0-15.96075-1.25569,21.20091,21.20091,0,0,0-2.60879,1.043A20.837,20.837,0,0,0,77.72493,43.7259l-.01748.06861-.00491-.005-.05656.23364L77.631,44.018a49.73478,49.73478,0,0,0-1.12276,5.40225A49.7232,49.7232,0,0,0,90.19951,91.5474c1.14448,1.16376,2.35974,2.27525,3.61553,3.32233a25.1006,25.1006,0,0,1-1.30134-5.25418,25.44387,25.44387,0,0,1-.22294-3.36271c0-.56914.0257-1.134.063-1.69666a43.45883,43.45883,0,0,1-9.616-34.19908c.13846-.91937.30882-1.84246.511-2.75929l-.001-.003q.1983-.91893.44019-1.82545a14.62135,14.62135,0,0,1,20.31541-7.8793,15.25578,15.25578,0,0,1,1.71842,1.028c.98885.82134,1.95543,1.69624,2.86393,2.59669l.02668.031a43.40647,43.40647,0,0,1,3.65674,4.139c.30173-.11343.60248-.22894.9006-.34982l.05253-.02068c.12739-.05.254-.10134.38094-.15593l.52819-.22418.87645-.39624-.03061.01324c.01572-.007.50213-.23866.50213-.23866.07859-.036.15759-.07528.23452-.11457l.21384-.10837c.146-.072.29367-.14435.43637-.22046l.05542-.029q.30835-.15759.61174-.32179l.05584-.02978c.13567-.07156.27051-.14766.40245-.22418l.06949-.02358.17-.10547-.074.03929.24486-.1427C117.961,42.99793,118.02063,42.962,118.08091,42.927Z"/>
          <path class="cls-1" d="M141.69482,8.61262a21.20487,21.20487,0,0,0-1.7981-2.15877A20.83651,20.83651,0,0,0,125.54158.00165l-.07068.0046L125.47421,0l-.23974.01841.00026-.01574A49.70257,49.70257,0,0,0,119.75.60424,49.723,49.723,0,0,0,83.91549,26.64336c-.75309,1.448-1.43458,2.94707-2.04234,4.46489a25.09177,25.09177,0,0,1,4.59471-2.861A25.51711,25.51711,0,0,1,89.59729,26.996c.541-.17568,1.08673-.329,1.635-.46765A43.45959,43.45959,0,0,1,120.784,6.81824c.91709-.15242,1.84763-.27557,2.78209-.36667l.00259-.00181q.93514-.09547,1.87213-.14544a14.62138,14.62138,0,0,1,13.77148,16.88622,15.26291,15.26291,0,0,1-.44676,1.952c-.4755,1.19432-1.009,2.38388-1.58451,3.52624l-.02135.035a43.39876,43.39876,0,0,1-2.80634,4.75675c.20112.252.404.50244.61112.74865l.036.04384c.08479.103.17082.20515.25975.30608l.2916.33751q.06266.07011.1216.14187l.00207-.00165-.05542-.06287.12657.14022-.03557-.03971c.04819.05232.12894.14218.14477.15976l.43182.47349-.01944-.02151c.01117.012.38466.40576.38466.40576.05749.06246.11788.12409.17744.18323l.17041.17165c.11333.11623.2279.23411.34413.3462l.04881.048q.24445.24383.49386.48062l.04467.043c.11085.10878.22666.21425.34165.31766l.036.04591.12739.11-.03723-.036.21674.1944c.05119.04741.10351.09281.15531.13908a49.66633,49.66633,0,0,0,3.96431-6.49885c.02533-.04565.0487-.09379.07212-.142.68014-1.34674,1.30232-2.741,1.8604-4.1432l.05729-.20515.02647-.03867a21.87086,21.87086,0,0,0,.68014-2.92758A20.79413,20.79413,0,0,0,141.69482,8.61262Z"/>
          <path class="cls-1" d="M181.90195,31.96646l-.02621-.06577.007.00114-.09156-.22227.015-.0046a49.702,49.702,0,0,0-2.267-5.03051A49.72327,49.72327,0,0,0,143.701.61042c-1.6099-.2688-3.24627-.45369-4.87763-.56267a25.09771,25.09771,0,0,1,4.14082,3.48545,25.61238,25.61238,0,0,1,2.157,2.58924c.33462.46061.64586.93291.94656,1.41023a43.45961,43.45961,0,0,1,27.881,22.01548c.4284.82517.83313,1.672,1.20849,2.53268l.00253.00186q.37978.85991.71685,1.73554A14.62144,14.62144,0,0,1,164.07252,52.1338a15.24953,15.24953,0,0,1-1.99456.17832c-1.28273-.08319-2.579-.22289-3.84322-.41729l-.03986-.00951a43.39972,43.39972,0,0,1-5.39124-1.19908c-.17749.26916-.35292.53946-.52312.81245l-.03019.048c-.07362.11457-.14559.23-.21549.34827l-.21053.34661c-.03143.05542-.0637.10961-.09761.16255l.00165.00124.02606-.04426s-.14807.26058-.18365.31973l-.15469.26968c-.02771.04757-.15635.27836-.15635.27836l.01572-.0273c-.00786.01406-.26223.48186-.26223.48186-.03971.07156-.079.14477-.1154.21715l-.115.22418c-.07611.14477-.15387.292-.22542.43843l-.02606.05294q-.15821.31207-.30856.6258l-.02482.05046c-.06949.141-.13484.2854-.19812.42851l-.03888.05625-.03888.09182.005.00207-.00579.01282.00248-.00455-.11581.26265c-.02942.06349-.05672.12765-.085.19145a49.66993,49.66993,0,0,0,7.40576,1.76206c.05119.00993.10423.01727.15728.02466,1.491.23064,3.00937.39154,4.51535.48905l.21281-.00889.04493.01313a21.85676,21.85676,0,0,0,2.99443-.25779A20.794,20.794,0,0,0,178.70412,49.99a21.202,21.202,0,0,0,1.4974-2.37721,20.836,20.836,0,0,0,1.70043-15.64635Z"/>
        </g>
      </g>
    </g>
  </g>
</svg>
